<?xml version="1.0" encoding="utf-8"?>
<!-- Generator: Adobe Illustrator 19.2.1, SVG Export Plug-In . SVG Version: 6.00 Build 0)  -->
<svg version="1.1" id="Layer_1" xmlns="http://www.w3.org/2000/svg" xmlns:xlink="http://www.w3.org/1999/xlink" x="0px" y="0px"
	 viewBox="0 0 96 96" style="enable-background:new 0 0 96 96;" xml:space="preserve">
<style type="text/css">
	.st0{fill:#333333;}
</style>
<path class="st0" d="M48,20.5c-15.2,0-27.5,12.3-27.5,27.5S32.8,75.5,48,75.5S75.5,63.2,75.5,48S63.2,20.5,48,20.5z M47.7,35.5
	l9.3,7.7l-1.4,1.6L46.3,37L47.7,35.5z M44.4,40.1l10.5,5.4l-0.9,1.8l-10.5-5.4L44.4,40.1z M41.9,45.6l11.7,2.9l-0.5,2.1l-11.7-2.9
	L41.9,45.6z M41.1,50.5l12,1.1l-0.2,2.1l-12-1.1L41.1,50.5z M40.8,55H53v2.1H40.8V55z M57.3,61.4H36.5V49.2h2.1v10h16.5v-10h2.1
	V61.4z M57.7,42.1l-6.8-9.6l1.7-1.1l6.9,9.6L57.7,42.1z"/>
</svg>
