<?xml version="1.0" encoding="UTF-8" standalone="no"?>
<svg
   xmlns:dc="http://purl.org/dc/elements/1.1/"
   xmlns:cc="http://creativecommons.org/ns#"
   xmlns:rdf="http://www.w3.org/1999/02/22-rdf-syntax-ns#"
   xmlns:svg="http://www.w3.org/2000/svg"
   xmlns="http://www.w3.org/2000/svg"
   xmlns:sodipodi="http://sodipodi.sourceforge.net/DTD/sodipodi-0.dtd"
   xmlns:inkscape="http://www.inkscape.org/namespaces/inkscape"
   class="icon"
   x="0px"
   y="0px"
   viewBox="0 0 28 28"
   enable-background="new 0 0 28 28"
   xml:space="preserve"
   id="svg2"
   version="1.1"
   inkscape:version="0.91 r13725"
   sodipodi:docname="icon-so.svg"><metadata
     id="metadata9"><rdf:RDF><cc:Work
         rdf:about=""><dc:format>image/svg+xml</dc:format><dc:type
           rdf:resource="http://purl.org/dc/dcmitype/StillImage" /><dc:title></dc:title></cc:Work></rdf:RDF></metadata><defs
     id="defs7" /><sodipodi:namedview
     pagecolor="#ffffff"
     bordercolor="#666666"
     borderopacity="1"
     objecttolerance="10"
     gridtolerance="10"
     guidetolerance="10"
     inkscape:pageopacity="0"
     inkscape:pageshadow="2"
     inkscape:window-width="1600"
     inkscape:window-height="849"
     id="namedview5"
     showgrid="false"
     inkscape:zoom="11.9198"
     inkscape:cx="23.419682"
     inkscape:cy="13.31094"
     inkscape:window-x="0"
     inkscape:window-y="0"
     inkscape:window-maximized="1"
     inkscape:current-layer="svg2" /><path
     style="fill:#d1cecc"
     d="M 14 0 C 6.27 0 0 6.27 0 14 C 0 21.73 6.27 28 14 28 C 21.73 28 28 21.73 28 14 C 28 6.27 21.73 0 14 0 z M 16.658203 5.3339844 L 20.644531 10.880859 L 19.605469 11.515625 L 15.675781 5.96875 L 16.658203 5.3339844 z M 13.828125 7.703125 L 19.199219 12.152344 L 18.390625 13.076172 L 13.017578 8.5683594 L 13.828125 7.703125 z M 11.919922 10.359375 L 17.986328 13.480469 L 17.466797 14.519531 L 11.400391 11.400391 L 11.919922 10.359375 z M 10.476562 13.537109 L 17.234375 15.212891 L 16.945312 16.425781 L 10.1875 14.751953 L 10.476562 13.537109 z M 7.3554688 15.617188 L 8.5683594 15.617188 L 8.5683594 21.394531 L 18.101562 21.394531 L 18.101562 15.617188 L 19.316406 15.617188 L 19.316406 22.666016 L 7.3554688 22.666016 L 7.3554688 15.617188 z M 10.013672 16.369141 L 16.945312 17.003906 L 16.832031 18.21875 L 9.8984375 17.582031 L 10.013672 16.369141 z M 9.8398438 18.96875 L 16.888672 18.96875 L 16.888672 20.181641 L 9.8398438 20.181641 L 9.8398438 18.96875 z "
     id="Print" /></svg>