<?xml version="1.0" encoding="UTF-8" standalone="no"?>
<svg
   xmlns:dc="http://purl.org/dc/elements/1.1/"
   xmlns:cc="http://creativecommons.org/ns#"
   xmlns:rdf="http://www.w3.org/1999/02/22-rdf-syntax-ns#"
   xmlns:svg="http://www.w3.org/2000/svg"
   xmlns="http://www.w3.org/2000/svg"
   xmlns:sodipodi="http://sodipodi.sourceforge.net/DTD/sodipodi-0.dtd"
   xmlns:inkscape="http://www.inkscape.org/namespaces/inkscape"
   class="icon"
   x="0px"
   y="0px"
   viewBox="0 0 28 28"
   enable-background="new 0 0 28 28"
   xml:space="preserve"
   id="svg2"
   version="1.1"
   inkscape:version="0.91 r13725"
   sodipodi:docname="icon-telegram.svg"><metadata
     id="metadata9"><rdf:RDF><cc:Work
         rdf:about=""><dc:format>image/svg+xml</dc:format><dc:type
           rdf:resource="http://purl.org/dc/dcmitype/StillImage" /><dc:title></dc:title></cc:Work></rdf:RDF></metadata><defs
     id="defs7" /><sodipodi:namedview
     pagecolor="#ffffff"
     bordercolor="#666666"
     borderopacity="1"
     objecttolerance="10"
     gridtolerance="10"
     guidetolerance="10"
     inkscape:pageopacity="0"
     inkscape:pageshadow="2"
     inkscape:window-width="1600"
     inkscape:window-height="849"
     id="namedview5"
     showgrid="false"
     inkscape:zoom="16.857143"
     inkscape:cx="23.354933"
     inkscape:cy="13.297222"
     inkscape:window-x="0"
     inkscape:window-y="0"
     inkscape:window-maximized="1"
     inkscape:current-layer="svg2" /><path
     style="fill:#d1cecc"
     d="M 14,0 C 6.27,0 0,6.27 0,14 0,21.73 6.27,28 14,28 21.73,28 28,21.73 28,14 28,6.27 21.73,0 14,0 Z m 7.761719,5.3300781 c 0.03217,-0.00194 0.06363,-0.00183 0.0957,0 0.186222,0.011082 0.368963,0.086577 0.511719,0.2265625 0.01481,0.014489 0.02966,0.029478 0.04297,0.044922 0.118253,0.135086 0.183062,0.299005 0.195313,0.4667969 0.0029,0.042184 0.0037,0.086186 0,0.1289062 -0.0025,0.030475 -0.0076,0.059695 -0.01367,0.089844 L 19.458984,22.734375 c -0.05039,0.264206 -0.230076,0.484872 -0.478515,0.587891 -0.09854,0.04091 -0.20309,0.06055 -0.306641,0.06055 -0.157671,0 -0.314879,-0.04563 -0.449219,-0.136718 l -5.074218,-3.44336 -2.722657,1.958985 C 10.21424,21.915234 9.9393123,21.953871 9.6914062,21.865234 9.4438202,21.776384 9.2565701,21.570704 9.1894531,21.316406 L 7.8222656,16.136719 2.9375,14.269531 C 2.6300412,14.151918 2.4260658,13.858488 2.4238281,13.529297 2.4216302,13.200106 2.6217677,12.903019 2.9277344,12.78125 L 21.498047,5.3925781 c 0.08426,-0.035792 0.173756,-0.056964 0.263672,-0.0625 z M 18.322266,8.375 5.421875,13.507812 8.7753906,14.791016 c 0.240235,0.09183 0.4207032,0.294318 0.4863282,0.542968 L 9.6875,16.945312 C 9.70699,16.75941 9.7908374,16.584908 9.9277344,16.453125 Z m 2.234375,0.068359 -8.810547,8.4765626 1.828125,1.240234 c 0.0073,0.0046 0.01455,0.0088 0.02148,0.01367 l 4.521485,3.066406 z M 9.8320312,17.492188 10.4375,19.787109 11.742188,18.847656 10.033203,17.689453 c -0.07937,-0.0537 -0.1467317,-0.121092 -0.2011718,-0.197265 z"
     id="Print"
     inkscape:connector-curvature="0"
     sodipodi:nodetypes="ssssscccccccccsccccccccccccccccccccccccccccc" /></svg>